<svg xmlns="http://www.w3.org/2000/svg" viewBox="0 0 256 256" role="img" aria-labelledby="title desc">
  <title id="title">Bonus Gift Box</title>
  <desc id="desc">A playful yellow and orange gift box with a red ribbon.</desc>
  <rect x="38" y="80" width="180" height="142" rx="18" fill="#f09f1f"/>
  <rect x="38" y="104" width="180" height="118" rx="16" fill="#f5b23a"/>
  <rect x="38" y="154" width="180" height="68" rx="16" fill="#e29016"/>

  <rect x="112" y="80" width="32" height="142" fill="#d7362b"/>
  <rect x="38" y="124" width="180" height="26" fill="#d7362b"/>
  <rect x="121" y="80" width="14" height="142" fill="#f1554a"/>
  <rect x="38" y="133" width="180" height="8" fill="#f1554a"/>

  <path d="M128 78c-22 0-40-17-40-37 0-13 9-23 21-23 12 0 21 9 26 20 5-11 14-20 26-20 12 0 21 10 21 23 0 20-18 37-40 37z" fill="#d7362b"/>
  <path d="M128 78c-15 0-27-12-27-28 0-10 7-18 16-18 8 0 14 6 18 13 4-7 10-13 18-13 9 0 16 8 16 18 0 16-12 28-27 28z" fill="#f1554a"/>
  <circle cx="128" cy="80" r="14" fill="#f9d98a"/>

  <path d="M56 205c10 5 20 7 30 7 38 0 59-28 74-28 9 0 15 4 22 9-15 17-36 29-63 29-24 0-45-8-63-17z" fill="#cd7d11" opacity=".45"/>
</svg>
