<svg xmlns="http://www.w3.org/2000/svg" viewBox="0 0 640 480">
  <rect width="640" height="480" fill="#de2910"/>
  <polygon fill="#ffde00" points="96,48 113,99 167,99 123,131 140,182 96,150 52,182 69,131 25,99 79,99"/>
  <polygon fill="#ffde00" points="210,54 218,77 242,77 223,91 230,114 210,100 191,114 198,91 179,77 203,77"/>
  <polygon fill="#ffde00" points="252,96 260,118 283,118 265,132 272,155 252,141 233,155 240,132 221,118 244,118"/>
  <polygon fill="#ffde00" points="252,154 260,176 283,176 265,190 272,213 252,199 233,213 240,190 221,176 244,176"/>
  <polygon fill="#ffde00" points="210,196 218,219 242,219 223,233 230,256 210,242 191,256 198,233 179,219 203,219"/>
</svg>
